<svg width="60" height="52" viewBox="0 0 60 52" fill="none" xmlns="http://www.w3.org/2000/svg">
<path d="M25.23 13.95C25.23 18.3367 24.11 21.6967 21.87 24.03C19.63 26.3633 16.62 27.53 12.84 27.53C9.06 27.53 6.05 26.3633 3.81 24.03C1.57 21.6967 0.45 18.3367 0.45 13.95C0.45 9.56333 1.57 6.20333 3.81 3.87C6.05 1.53666 9.06 0.369996 12.84 0.369996C16.62 0.369996 19.63 1.53666 21.87 3.87C24.11 6.20333 25.23 9.56333 25.23 13.95ZM17.32 13.95C17.32 11.57 16.9 9.84333 16.06 8.77C15.22 7.69666 14.1467 7.16 12.84 7.16C11.4867 7.16 10.39 7.69666 9.55 8.77C8.75667 9.84333 8.36 11.57 8.36 13.95C8.36 16.33 8.75667 18.08 9.55 19.2C10.39 20.2733 11.4867 20.81 12.84 20.81C14.1467 20.81 15.22 20.2733 16.06 19.2C16.9 18.08 17.32 16.33 17.32 13.95ZM38.88 1.49H48.61L21.24 50H11.51L38.88 1.49ZM59.81 37.54C59.81 41.9267 58.69 45.2867 56.45 47.62C54.21 49.9533 51.2 51.12 47.42 51.12C43.64 51.12 40.63 49.9533 38.39 47.62C36.15 45.2867 35.03 41.9267 35.03 37.54C35.03 33.1533 36.15 29.7933 38.39 27.46C40.63 25.1267 43.64 23.96 47.42 23.96C51.2 23.96 54.21 25.1267 56.45 27.46C58.69 29.7933 59.81 33.1533 59.81 37.54ZM51.9 37.54C51.9 35.16 51.48 33.4333 50.64 32.36C49.8 31.2867 48.7267 30.75 47.42 30.75C46.0667 30.75 44.97 31.2867 44.13 32.36C43.3367 33.4333 42.94 35.16 42.94 37.54C42.94 39.92 43.3367 41.67 44.13 42.79C44.97 43.8633 46.0667 44.4 47.42 44.4C48.7267 44.4 49.8 43.8633 50.64 42.79C51.48 41.67 51.9 39.92 51.9 37.54Z" fill="url(#paint0_linear_175_339)"/>
<defs>
<linearGradient id="paint0_linear_175_339" x1="56.75" y1="69" x2="2.08864" y2="65.2168" gradientUnits="userSpaceOnUse">
<stop stop-color="#9166F0"/>
<stop offset="1" stop-color="#210C51"/>
</linearGradient>
</defs>
</svg>
