<svg width="159" height="124" viewBox="0 0 159 124" fill="none" xmlns="http://www.w3.org/2000/svg">
<path d="M0.278906 27.67C3.56557 26.31 6.96557 24.78 10.4789 23.08C14.1056 21.2667 17.6189 19.34 21.0189 17.3C24.4189 15.1467 27.6489 12.9367 30.7089 10.67C33.8822 8.29 36.7156 5.79666 39.2089 3.19H56.8889V121H31.5589V36.17C28.1589 38.4367 24.3622 40.5333 20.1689 42.46C15.9756 44.2733 11.8956 45.86 7.92891 47.22L0.278906 27.67ZM158.78 61.84C158.78 81.6733 154.983 96.9167 147.39 107.57C139.91 118.11 129.54 123.38 116.28 123.38C103.02 123.38 92.5933 118.11 85 107.57C77.52 96.9167 73.78 81.6733 73.78 61.84C73.78 51.98 74.7433 43.2533 76.67 35.66C78.71 28.0667 81.6 21.6633 85.34 16.45C89.08 11.2367 93.5567 7.26999 98.77 4.54999C103.983 1.82999 109.82 0.469991 116.28 0.469991C129.54 0.469991 139.91 5.79666 147.39 16.45C154.983 26.99 158.78 42.12 158.78 61.84ZM132.94 61.84C132.94 55.9467 132.657 50.62 132.09 45.86C131.523 40.9867 130.617 36.7933 129.37 33.28C128.123 29.7667 126.423 27.0467 124.27 25.12C122.117 23.1933 119.453 22.23 116.28 22.23C113.107 22.23 110.443 23.1933 108.29 25.12C106.25 27.0467 104.55 29.7667 103.19 33.28C101.943 36.7933 101.037 40.9867 100.47 45.86C99.9033 50.62 99.62 55.9467 99.62 61.84C99.62 67.7333 99.9033 73.1167 100.47 77.99C101.037 82.8633 101.943 87.0567 103.19 90.57C104.55 94.0833 106.25 96.8033 108.29 98.73C110.443 100.657 113.107 101.62 116.28 101.62C119.453 101.62 122.117 100.657 124.27 98.73C126.423 96.8033 128.123 94.0833 129.37 90.57C130.617 87.0567 131.523 82.8633 132.09 77.99C132.657 73.1167 132.94 67.7333 132.94 61.84Z" fill="url(#paint0_linear_175_332)"/>
<defs>
<linearGradient id="paint0_linear_175_332" x1="147.981" y1="168" x2="-0.684009" y2="156.463" gradientUnits="userSpaceOnUse">
<stop stop-color="#9166F0"/>
<stop offset="1" stop-color="#210C51"/>
</linearGradient>
</defs>
</svg>
