<svg width="252" height="124" viewBox="0 0 252 124" fill="none" xmlns="http://www.w3.org/2000/svg">
<path d="M0.168356 27.67C3.45502 26.31 6.85502 24.78 10.3684 23.08C13.995 21.2667 17.5084 19.34 20.9084 17.3C24.3084 15.1467 27.5384 12.9367 30.5984 10.67C33.7717 8.29 36.605 5.79666 39.0984 3.19H56.7784V121H31.4484V36.17C28.0484 38.4367 24.2517 40.5333 20.0584 42.46C15.865 44.2733 11.785 45.86 7.81836 47.22L0.168356 27.67ZM129.089 86.32C129.089 83.0333 128.353 80.1433 126.879 77.65C125.406 75.0433 122.856 72.89 119.229 71.19C115.603 69.49 110.729 68.1867 104.609 67.28C98.4895 66.3733 90.7828 65.92 81.4895 65.92C82.7361 55.38 83.7561 44.67 84.5495 33.79C85.3428 22.91 85.9661 12.71 86.4195 3.19H150.169V24.44H107.669C107.443 28.52 107.159 32.4867 106.819 36.34C106.593 40.08 106.309 43.3667 105.969 46.2C122.516 47.3333 134.699 51.2433 142.519 57.93C150.453 64.5033 154.419 73.6833 154.419 85.47C154.419 90.91 153.456 95.9533 151.529 100.6C149.603 105.247 146.713 109.27 142.859 112.67C139.006 116.07 134.133 118.733 128.239 120.66C122.459 122.587 115.659 123.55 107.839 123.55C104.779 123.55 101.549 123.323 98.1495 122.87C94.8628 122.53 91.6328 122.02 88.4595 121.34C85.3995 120.773 82.6228 120.15 80.1295 119.47C77.6361 118.79 75.7095 118.11 74.3495 117.43L78.9395 96.52C81.7728 97.7667 85.5128 99.0133 90.1595 100.26C94.8061 101.393 100.359 101.96 106.819 101.96C114.639 101.96 120.306 100.43 123.819 97.37C127.333 94.1967 129.089 90.5133 129.089 86.32ZM251.891 61.84C251.891 81.6733 248.094 96.9167 240.501 107.57C233.021 118.11 222.651 123.38 209.391 123.38C196.131 123.38 185.704 118.11 178.111 107.57C170.631 96.9167 166.891 81.6733 166.891 61.84C166.891 51.98 167.854 43.2533 169.781 35.66C171.821 28.0667 174.711 21.6633 178.451 16.45C182.191 11.2367 186.667 7.26999 191.881 4.54999C197.094 1.82999 202.931 0.469991 209.391 0.469991C222.651 0.469991 233.021 5.79666 240.501 16.45C248.094 26.99 251.891 42.12 251.891 61.84ZM226.051 61.84C226.051 55.9467 225.767 50.62 225.201 45.86C224.634 40.9867 223.727 36.7933 222.481 33.28C221.234 29.7667 219.534 27.0467 217.381 25.12C215.227 23.1933 212.564 22.23 209.391 22.23C206.217 22.23 203.554 23.1933 201.401 25.12C199.361 27.0467 197.661 29.7667 196.301 33.28C195.054 36.7933 194.147 40.9867 193.581 45.86C193.014 50.62 192.731 55.9467 192.731 61.84C192.731 67.7333 193.014 73.1167 193.581 77.99C194.147 82.8633 195.054 87.0567 196.301 90.57C197.661 94.0833 199.361 96.8033 201.401 98.73C203.554 100.657 206.217 101.62 209.391 101.62C212.564 101.62 215.227 100.657 217.381 98.73C219.534 96.8033 221.234 94.0833 222.481 90.57C223.727 87.0567 224.634 82.8633 225.201 77.99C225.767 73.1167 226.051 67.7333 226.051 61.84Z" fill="url(#paint0_linear_175_335)"/>
<defs>
<linearGradient id="paint0_linear_175_335" x1="232.038" y1="168" x2="7.04886" y2="141.366" gradientUnits="userSpaceOnUse">
<stop stop-color="#9166F0"/>
<stop offset="1" stop-color="#210C51"/>
</linearGradient>
</defs>
</svg>
