<svg width="81" height="121" viewBox="0 0 81 121" fill="none" xmlns="http://www.w3.org/2000/svg">
<path d="M55.3895 83.32C55.3895 80.0333 54.6528 77.1433 53.1795 74.65C51.7061 72.0433 49.1561 69.89 45.5295 68.19C41.9028 66.49 37.0295 65.1867 30.9095 64.28C24.7895 63.3733 17.0828 62.92 7.78945 62.92C9.03612 52.38 10.0561 41.67 10.8495 30.79C11.6428 19.91 12.2661 9.71 12.7195 0.189997H76.4695V21.44H33.9695C33.7428 25.52 33.4595 29.4867 33.1195 33.34C32.8928 37.08 32.6095 40.3667 32.2695 43.2C48.8161 44.3333 60.9995 48.2433 68.8195 54.93C76.7528 61.5033 80.7195 70.6833 80.7195 82.47C80.7195 87.91 79.7561 92.9533 77.8295 97.6C75.9028 102.247 73.0128 106.27 69.1595 109.67C65.3061 113.07 60.4328 115.733 54.5395 117.66C48.7595 119.587 41.9595 120.55 34.1395 120.55C31.0795 120.55 27.8495 120.323 24.4495 119.87C21.1628 119.53 17.9328 119.02 14.7595 118.34C11.6995 117.773 8.92279 117.15 6.42945 116.47C3.93612 115.79 2.00945 115.11 0.649454 114.43L5.23945 93.52C8.07279 94.7667 11.8128 96.0133 16.4595 97.26C21.1061 98.3933 26.6595 98.96 33.1195 98.96C40.9395 98.96 46.6061 97.43 50.1195 94.37C53.6328 91.1967 55.3895 87.5133 55.3895 83.32Z" fill="url(#paint0_linear_175_342)"/>
<defs>
<linearGradient id="paint0_linear_175_342" x1="81.6731" y1="165" x2="-0.141257" y2="161.521" gradientUnits="userSpaceOnUse">
<stop stop-color="#9166F0"/>
<stop offset="1" stop-color="#210C51"/>
</linearGradient>
</defs>
</svg>
