<svg width="179" height="124" viewBox="0 0 179 124" fill="none" xmlns="http://www.w3.org/2000/svg">
<path d="M45.13 57.76C47.7367 57.76 50.4567 57.5333 53.29 57.08C56.1233 56.5133 58.22 55.7767 59.58 54.87V53.34C59.58 52.8867 59.58 52.4333 59.58 51.98C59.6933 51.5267 59.75 51.13 59.75 50.79C59.6367 46.71 59.2967 42.9133 58.73 39.4C58.1633 35.7733 57.2 32.6567 55.84 30.05C54.48 27.33 52.61 25.2333 50.23 23.76C47.9633 22.1733 45.13 21.38 41.73 21.38C39.01 21.38 36.63 21.9467 34.59 23.08C32.55 24.2133 30.9067 25.6867 29.66 27.5C28.4133 29.3133 27.45 31.2967 26.77 33.45C26.2033 35.6033 25.92 37.7 25.92 39.74C25.92 45.86 27.3933 50.3933 30.34 53.34C33.4 56.2867 38.33 57.76 45.13 57.76ZM57.54 74.25C55.16 75.3833 52.4967 76.2333 49.55 76.8C46.7167 77.2533 44.28 77.48 42.24 77.48C34.8733 77.48 28.5833 76.63 23.37 74.93C18.1567 73.1167 13.85 70.6233 10.45 67.45C7.16333 64.1633 4.72667 60.2533 3.14 55.72C1.55333 51.1867 0.76 46.2 0.76 40.76C0.76 36.2267 1.49667 31.58 2.97 26.82C4.55667 22.06 6.99333 17.7533 10.28 13.9C13.5667 9.93333 17.7033 6.70333 22.69 4.20999C27.79 1.60333 33.91 0.299994 41.05 0.299994C55.67 0.299994 66.6633 4.83333 74.03 13.9C81.51 22.8533 85.25 35.7733 85.25 52.66C85.25 63.7667 83.7767 73.57 80.83 82.07C77.9967 90.57 73.52 97.71 67.4 103.49C61.3933 109.27 53.6867 113.69 44.28 116.75C34.8733 119.697 23.71 121.227 10.79 121.34C10.6767 117.713 10.5067 114.2 10.28 110.8C10.0533 107.4 9.82667 103.887 9.6 100.26C16.06 100.147 21.8967 99.6933 27.11 98.9C32.3233 97.9933 36.9133 96.5767 40.88 94.65C44.8467 92.61 48.19 89.9467 50.91 86.66C53.7433 83.3733 55.9533 79.2367 57.54 74.25ZM178.301 61.84C178.301 81.6733 174.504 96.9167 166.911 107.57C159.431 118.11 149.061 123.38 135.801 123.38C122.541 123.38 112.114 118.11 104.521 107.57C97.0411 96.9167 93.3011 81.6733 93.3011 61.84C93.3011 51.98 94.2644 43.2533 96.1911 35.66C98.2311 28.0667 101.121 21.6633 104.861 16.45C108.601 11.2367 113.078 7.26999 118.291 4.54999C123.504 1.82999 129.341 0.469991 135.801 0.469991C149.061 0.469991 159.431 5.79666 166.911 16.45C174.504 26.99 178.301 42.12 178.301 61.84ZM152.461 61.84C152.461 55.9467 152.178 50.62 151.611 45.86C151.044 40.9867 150.138 36.7933 148.891 33.28C147.644 29.7667 145.944 27.0467 143.791 25.12C141.638 23.1933 138.974 22.23 135.801 22.23C132.628 22.23 129.964 23.1933 127.811 25.12C125.771 27.0467 124.071 29.7667 122.711 33.28C121.464 36.7933 120.558 40.9867 119.991 45.86C119.424 50.62 119.141 55.9467 119.141 61.84C119.141 67.7333 119.424 73.1167 119.991 77.99C120.558 82.8633 121.464 87.0567 122.711 90.57C124.071 94.0833 125.771 96.8033 127.811 98.73C129.964 100.657 132.628 101.62 135.801 101.62C138.974 101.62 141.638 100.657 143.791 98.73C145.944 96.8033 147.644 94.0833 148.891 90.57C150.138 87.0567 151.044 82.8633 151.611 77.99C152.178 73.1167 152.461 67.7333 152.461 61.84Z" fill="url(#paint0_linear_175_338)"/>
<defs>
<linearGradient id="paint0_linear_175_338" x1="166.827" y1="168" x2="8.21629" y2="154.857" gradientUnits="userSpaceOnUse">
<stop stop-color="#9166F0"/>
<stop offset="1" stop-color="#210C51"/>
</linearGradient>
</defs>
</svg>
